<?xml version="1.0" encoding="UTF-8"?>
<svg version="1.1" xmlns="http://www.w3.org/2000/svg" width="1920" height="1080">
<path d="M0 0 C0.83595703 0.00902344 1.67191406 0.01804687 2.53320312 0.02734375 C4.58475969 0.05079011 6.63616777 0.08665734 8.6875 0.125 C9.1825 1.115 9.1825 1.115 9.6875 2.125 C11.0796875 2.3415625 11.0796875 2.3415625 12.5 2.5625 C15.80622927 3.14595222 17.29428442 3.82383117 19.6875 6.125 C19.6875 6.785 19.6875 7.445 19.6875 8.125 C21.0178125 7.3825 21.0178125 7.3825 22.375 6.625 C25.661861 5.13661011 27.19943007 5.03320869 30.6875 5.125 C32.83778304 4.17521103 32.83778304 4.17521103 34.6875 3.125 C41.6875 3.125 48.6875 3.125 55.6875 3.125 C55.6875 3.785 55.6875 4.445 55.6875 5.125 C56.27917969 5.09019531 56.87085938 5.05539062 57.48046875 5.01953125 C62.61114002 4.843766 65.34742693 5.19251819 69.6875 8.125 C70.61949219 8.27324219 71.55148437 8.42148437 72.51171875 8.57421875 C83.67156517 10.50969027 94.48300938 20.21314021 100.87109375 29.1953125 C101.47050781 30.16210938 102.06992187 31.12890625 102.6875 32.125 C103.38746094 33.25035156 103.38746094 33.25035156 104.1015625 34.3984375 C104.50117187 35.09195313 104.90078125 35.78546875 105.3125 36.5 C105.71726562 37.18835938 106.12203125 37.87671875 106.5390625 38.5859375 C109.77161603 45.73273952 110.04307137 52.6506571 110 60.375 C109.99581055 61.39553467 109.99162109 62.41606934 109.98730469 63.4675293 C109.878624 70.71271557 109.21214014 77.28301307 106.6875 84.125 C106.33945312 85.06988281 105.99140625 86.01476562 105.6328125 86.98828125 C104.42873908 90.09514222 103.17779688 93.14440625 101.6875 96.125 C101.0275 96.125 100.3675 96.125 99.6875 96.125 C100.0175 97.115 100.3475 98.105 100.6875 99.125 C99.73172943 100.49038653 98.72397024 101.81981525 97.6875 103.125 C97.39746094 103.89972656 97.10742188 104.67445313 96.80859375 105.47265625 C95.23331685 109.19953086 92.7490924 111.87900242 90.1484375 114.94140625 C88.3167854 117.24121518 88.3167854 117.24121518 88.6875 121.125 C89.62722379 124.68252579 90.70454622 128.17897971 91.8125 131.6875 C92.66287535 135.0282603 92.76190781 137.70224071 92.6875 141.125 C92.978724 142.79953799 93.29820799 144.47050895 93.6875 146.125 C93.0275 146.125 92.3675 146.125 91.6875 146.125 C91.89375 147.1975 92.1 148.27 92.3125 149.375 C92.70835917 153.33359167 92.46698478 153.86261124 90.6875 157.125 C90.5328125 158.8884375 90.5328125 158.8884375 90.375 160.6875 C89.89617613 165.37997389 87.98534942 169.10596428 85.953125 173.31640625 C84.39898136 176.76526204 83.39370732 180.25083151 82.37890625 183.88671875 C81.47429597 186.81520286 80.16720123 189.44744539 78.6875 192.125 C82.94266734 188.37044058 85.55702819 184.25699129 88.35546875 179.33203125 C89.6875 177.125 89.6875 177.125 91.6875 175.125 C94.33348467 167.9466588 95.17583783 160.70195462 95.6875 153.125 C95.86839616 151.27017741 96.05560017 149.41595596 96.25 147.5625 C96.47534998 145.39567331 96.6875 143.30294013 96.6875 141.125 C97.3475 140.795 98.0075 140.465 98.6875 140.125 C99.03929197 137.7943782 99.37080179 135.46064933 99.6875 133.125 C100.625 131.0625 100.625 131.0625 101.6875 129.125 C102.05875 127.76375 102.05875 127.76375 102.4375 126.375 C104.59120755 120.77536038 108.41040034 116.27842449 112.6875 112.125 C113.43515625 111.33351563 114.1828125 110.54203125 114.953125 109.7265625 C117.900885 106.92197942 121.01736828 104.67309693 124.4375 102.5 C125.05584717 102.10538574 125.67419434 101.71077148 126.3112793 101.30419922 C130.95414763 98.41882818 135.40239416 96.52838969 140.6875 95.125 C142.18847001 94.5650935 143.68845645 94.00254396 145.1875 93.4375 C149.12577501 92.0994521 152.51302163 91.92134853 156.64453125 92.21484375 C158.73614985 92.2713452 158.73614985 92.2713452 160.53100586 91.1315918 C162.97208466 89.99216376 164.5560519 89.89349394 167.234375 89.9296875 C168.07871094 89.93613281 168.92304687 89.94257813 169.79296875 89.94921875 C171.10201172 89.97435547 171.10201172 89.97435547 172.4375 90 C173.32566406 90.00902344 174.21382812 90.01804687 175.12890625 90.02734375 C177.31538058 90.05085423 179.50130094 90.08371501 181.6875 90.125 C181.6875 90.785 181.6875 91.445 181.6875 92.125 C182.49574219 92.11339844 183.30398438 92.10179687 184.13671875 92.08984375 C185.73966797 92.07630859 185.73966797 92.07630859 187.375 92.0625 C188.43074219 92.05089844 189.48648437 92.03929687 190.57421875 92.02734375 C193.43680589 92.11713632 195.93590637 92.33670561 198.6875 93.125 C199.0175 93.785 199.3475 94.445 199.6875 95.125 C200.55375 95.269375 201.42 95.41375 202.3125 95.5625 C207.18139007 96.37398168 211.2535711 98.13490624 215.3125 100.9375 C217.62953733 102.4455331 217.62953733 102.4455331 219.9921875 101.359375 C223.66253065 99.67846422 227.31989427 97.97315046 230.96875 96.24609375 C233.56482973 95.17558386 235.9351199 94.62202264 238.6875 94.125 C239.409375 93.774375 240.13125 93.42375 240.875 93.0625 C244.4476587 91.87161377 247.55047377 92.06585541 251.28515625 92.25 C253.68579264 92.29422115 253.68579264 92.29422115 255.56005859 91.13378906 C257.94155663 90.00453156 259.50837777 89.86719497 262.12890625 89.859375 C262.95970703 89.85679687 263.79050781 89.85421875 264.64648438 89.8515625 C265.50564453 89.85929687 266.36480469 89.86703125 267.25 89.875 C268.54454102 89.86339844 268.54454102 89.86339844 269.86523438 89.8515625 C270.69474609 89.85414063 271.52425781 89.85671875 272.37890625 89.859375 C273.13373291 89.86163086 273.88855957 89.86388672 274.66625977 89.86621094 C276.6875 90.125 276.6875 90.125 279.6875 92.125 C281.93462046 92.29198296 281.93462046 92.29198296 284.375 92.125 C290.6039001 91.99769401 296.20479892 92.96190322 301.6875 96.125 C302.3475 96.455 303.0075 96.785 303.6875 97.125 C303.67178955 96.03558105 303.6560791 94.94616211 303.63989258 93.82373047 C303.58541022 89.76472425 303.55108361 85.7057501 303.52270508 81.64648438 C303.50766005 79.89284827 303.48721896 78.13924953 303.46118164 76.38574219 C303.42460879 73.85862991 303.4077308 71.33201704 303.39453125 68.8046875 C303.37904739 68.02632538 303.36356354 67.24796326 303.34761047 66.4460144 C303.34612218 61.5835311 304.11160691 58.39735786 306.6875 54.125 C307.3475 54.125 308.0075 54.125 308.6875 54.125 C308.6875 53.465 308.6875 52.805 308.6875 52.125 C313.66814782 49.47824705 318.71855351 49.80153224 324.2109375 49.7890625 C325.23047516 49.7824057 326.25001282 49.7757489 327.30044556 49.76889038 C329.45385946 49.75878084 331.60730458 49.75407283 333.76074219 49.75439453 C337.04414842 49.75002443 340.32620667 49.71369426 343.609375 49.67578125 C345.70572459 49.66991204 347.80208054 49.66594335 349.8984375 49.6640625 C351.36281754 49.64250595 351.36281754 49.64250595 352.85678101 49.62051392 C358.9987249 49.66140177 362.74279964 50.37741232 367.6875 54.125 C370.31298746 57.74676198 371.06877128 60.29560155 371.11987305 64.74145508 C371.13966721 65.84221878 371.15946136 66.94298248 371.17985535 68.07710266 C371.18944023 69.84297981 371.18944023 69.84297981 371.19921875 71.64453125 C371.22614555 73.46509285 371.22614555 73.46509285 371.25361633 75.32243347 C371.30774301 79.19408711 371.34162377 83.06561728 371.375 86.9375 C371.40817086 89.56447031 371.44266029 92.19142433 371.47851562 94.81835938 C371.56347111 101.25379554 371.63181127 107.68924763 371.6875 114.125 C372.3151123 113.33303223 372.94272461 112.54106445 373.58935547 111.72509766 C375.21905442 109.70551495 376.84095535 107.93118302 378.6875 106.125 C379.65578907 105.00855741 380.61388681 103.88320819 381.5625 102.75 C389.14448502 93.89183929 389.14448502 93.89183929 393.6875 93.125 C395.60572545 93.04355459 397.52660489 93.0174685 399.4465332 93.02734375 C401.1840258 93.03229858 401.1840258 93.03229858 402.95661926 93.03735352 C404.20456772 93.04565186 405.45251617 93.0539502 406.73828125 93.0625 C408.70534577 93.06828614 410.67241033 93.07406656 412.63947582 93.07951355 C416.78962182 93.09264383 420.93972945 93.11477085 425.08984375 93.13537598 C428.50277934 93.15198637 431.91569547 93.16658987 435.32865906 93.17602539 C437.88630453 93.18353199 440.44394175 93.19555635 443.00154114 93.21264648 C448.68436475 93.22872105 454.09029069 93.1151496 459.6875 92.125 C461.4990721 92.0633819 463.31255032 92.03767192 465.125 92.0625 C465.98996094 92.07152344 466.85492187 92.08054687 467.74609375 92.08984375 C468.38675781 92.10144531 469.02742188 92.11304688 469.6875 92.125 C469.6875 91.465 469.6875 90.805 469.6875 90.125 C477.2775 90.125 484.8675 90.125 492.6875 90.125 C492.6875 90.785 492.6875 91.445 492.6875 92.125 C493.52152344 92.09019531 494.35554688 92.05539062 495.21484375 92.01953125 C502.41572037 91.84631429 508.04338086 92.38838535 514.6875 95.125 C515.656875 95.434375 516.62625 95.74375 517.625 96.0625 C520.6875 97.125 520.6875 97.125 523.1015625 98.20703125 C523.97554687 98.59246094 524.84953125 98.97789062 525.75 99.375 C526.56597656 99.75140625 527.38195313 100.1278125 528.22265625 100.515625 C531.38597962 101.29768276 532.81679582 100.54590224 535.6875 99.125 C539.37171053 97.96710526 539.37171053 97.96710526 541.6875 99.125 C542.0175 98.135 542.3475 97.145 542.6875 96.125 C545.06057344 95.26665429 547.23618808 94.66233468 549.6875 94.125 C550.4815625 93.93808594 551.275625 93.75117188 552.09375 93.55859375 C557.40690645 92.38609163 562.25144931 91.92366479 567.6875 92.125 C567.6875 91.465 567.6875 90.805 567.6875 90.125 C574.2875 90.125 580.8875 90.125 587.6875 90.125 C587.6875 90.785 587.6875 91.445 587.6875 92.125 C588.52152344 92.09019531 589.35554688 92.05539062 590.21484375 92.01953125 C597.45706637 91.84531971 602.99108163 92.47819432 609.6875 95.125 C610.8425 95.41375 611.9975 95.7025 613.1875 96 C628.676642 100.97865279 640.60758824 113.03934352 648 127.1875 C650.16019083 131.64851909 651.37996327 135.20441235 651.6875 140.125 C651.873125 140.764375 652.05875 141.40375 652.25 142.0625 C652.95901599 145.40500396 652.74433166 148.71510051 652.6875 152.125 C653.3475 152.125 654.0075 152.125 654.6875 152.125 C654.6875 154.435 654.6875 156.745 654.6875 159.125 C654.0275 159.125 653.3675 159.125 652.6875 159.125 C652.6875 162.755 652.6875 166.385 652.6875 170.125 C653.3475 170.125 654.0075 170.125 654.6875 170.125 C654.501875 170.723125 654.31625 171.32125 654.125 171.9375 C653.46656313 174.28908762 653.46656313 174.28908762 654.6875 177.125 C654.0275 177.125 653.3675 177.125 652.6875 177.125 C652.6875 177.785 652.6875 178.445 652.6875 179.125 C653.3475 179.125 654.0075 179.125 654.6875 179.125 C654.6875 181.105 654.6875 183.085 654.6875 185.125 C654.0275 185.125 653.3675 185.125 652.6875 185.125 C652.749375 186.919375 652.749375 186.919375 652.8125 188.75 C652.80227475 194.5374911 651.29516369 198.61542039 647.6875 203.125 C647.38714844 203.73730469 647.08679687 204.34960938 646.77734375 204.98046875 C645.61332468 207.27095789 644.2741176 209.24543975 642.75 211.3125 C642.24597656 212.00730469 641.74195313 212.70210937 641.22265625 213.41796875 C639.6875 215.125 639.6875 215.125 636.6875 216.125 C635.66077669 217.09754266 634.66213129 218.10025913 633.6875 219.125 C629.56766039 222.48670932 625.82810111 224.60618604 620.6875 226.125 C619.2025 227.115 619.2025 227.115 617.6875 228.125 C616.49125 228.29 615.295 228.455 614.0625 228.625 C612.94875 228.79 611.835 228.955 610.6875 229.125 C610.3575 229.785 610.0275 230.445 609.6875 231.125 C608.800625 231.104375 607.91375 231.08375 607 231.0625 C603.85627412 231.00853115 603.85627412 231.00853115 601.52661133 231.62060547 C597.65369772 232.30866459 593.87504804 232.26771905 589.94921875 232.2578125 C589.10962112 232.25876923 588.2700235 232.25972595 587.40498352 232.26071167 C585.63237432 232.26139054 583.85976259 232.2595567 582.0871582 232.25537109 C579.39463613 232.25003889 576.7022824 232.25531562 574.00976562 232.26171875 C572.28124964 232.26105752 570.55273375 232.25977544 568.82421875 232.2578125 C567.63006599 232.26084885 567.63006599 232.26084885 566.41178894 232.26394653 C562.71048701 232.24867679 559.15552491 232.09510665 555.49145508 231.55419922 C551.83393363 231.14152207 549.26299902 231.42609968 545.6875 232.125 C541.3926888 232.31269098 537.10067795 232.31081822 532.80200195 232.31030273 C530.75906564 232.31249029 528.71666929 232.33068735 526.67382812 232.34960938 C524.71799805 232.35250977 524.71799805 232.35250977 522.72265625 232.35546875 C521.5406665 232.35957764 520.35867676 232.36368652 519.14086914 232.36791992 C513.39106308 231.96346202 509.1872657 230.64044195 504.6875 227.125 C501.3831746 224.91294754 501.3831746 224.91294754 497.6875 224.125 C494.68374446 225.13334287 492.02602091 226.42347742 489.23828125 227.92578125 C486.6875 229.125 486.6875 229.125 482.6875 229.125 C482.0275 229.785 481.3675 230.445 480.6875 231.125 C473.37984032 232.35540868 466.07870996 232.31113563 458.68676758 232.31030273 C456.49476139 232.31250526 454.30324671 232.33075785 452.11132812 232.34960938 C450.70573087 232.35254127 449.30013125 232.35452743 447.89453125 232.35546875 C445.99924683 232.36163208 445.99924683 232.36163208 444.06567383 232.36791992 C440.6875 232.125 440.6875 232.125 438.29638672 231.125 C434.45960526 229.65434149 430.81154509 229.85888129 426.73828125 229.89453125 C425.88445358 229.89498947 425.03062592 229.89544769 424.15092468 229.8959198 C422.35312503 229.89893184 420.55532775 229.90678667 418.75756836 229.91918945 C415.99909278 229.93750602 413.24095207 229.93969857 410.48242188 229.93945312 C408.73437209 229.9443665 406.98632457 229.95019403 405.23828125 229.95703125 C404.4112117 229.95814407 403.58414215 229.9592569 402.73200989 229.96040344 C398.57666751 229.88812868 398.57666751 229.88812868 394.6875 231.125 C394.0275 230.465 393.3675 229.805 392.6875 229.125 C392.06875 228.8775 391.45 228.63 390.8125 228.375 C387.75572533 226.57689725 386.45076856 224.14774611 384.6875 221.125 C384.6875 220.465 384.6875 219.805 384.6875 219.125 C384.06875 218.50625 383.45 217.8875 382.8125 217.25 C380.74351037 215.18101037 379.91225237 213.72759879 378.6875 211.125 C377.37443567 209.1116347 376.03912508 207.11268394 374.6875 205.125 C374.32011719 204.5578125 373.95273438 203.990625 373.57421875 203.40625 C372.63763091 201.96220184 371.66546036 200.54135638 370.6875 199.125 C370.3575 199.125 370.0275 199.125 369.6875 199.125 C369.67348145 200.27500488 369.67348145 200.27500488 369.65917969 201.44824219 C369.60547227 204.92448103 369.52182424 208.39937474 369.4375 211.875 C369.42332031 213.0815625 369.40914062 214.288125 369.39453125 215.53125 C369.36230469 216.69140625 369.33007812 217.8515625 369.296875 219.046875 C369.2654541 220.64934082 369.2654541 220.64934082 369.23339844 222.28417969 C368.56209422 225.77760361 367.43738354 226.93641992 364.6875 229.125 C361.9375 230.375 361.9375 230.375 359.6875 231.125 C359.6875 230.465 359.6875 229.805 359.6875 229.125 C359.08472733 229.14641052 358.48195465 229.16782104 357.86091614 229.18988037 C351.58358637 229.40878523 345.30585252 229.59874749 339.02709961 229.77197266 C336.68442331 229.84040274 334.34194995 229.9161945 331.99975586 229.99951172 C328.63161146 230.11804298 325.26362298 230.21002065 321.89453125 230.296875 C320.32551811 230.36065338 320.32551811 230.36065338 318.72480774 230.42572021 C311.40751548 230.5773646 311.40751548 230.5773646 307.48706055 228.11425781 C306.89320557 227.45780273 306.29935059 226.80134766 305.6875 226.125 C305.171875 226.434375 304.65625 226.74375 304.125 227.0625 C301.02866646 228.41218385 298.02213986 228.64862288 294.6875 229.125 C294.048125 229.455 293.40875 229.785 292.75 230.125 C287.31461045 232.76034039 280.22943258 232.2838227 274.27734375 232.29296875 C273.50620743 232.29629715 272.73507111 232.29962555 271.94056702 232.30305481 C270.32293284 232.30808097 268.70528846 232.31046448 267.08764648 232.31030273 C264.62791845 232.3124974 262.16863385 232.33072107 259.70898438 232.34960938 C258.12760568 232.35254269 256.54622488 232.3545279 254.96484375 232.35546875 C254.23861313 232.36265427 253.51238251 232.36983978 252.7641449 232.37724304 C248.07690489 232.35647552 244.13406931 231.5678406 239.6875 230.125 C238.1096875 229.75375 238.1096875 229.75375 236.5 229.375 C231.85341005 228.1000853 227.74542074 225.59348332 223.5546875 223.26953125 C220.31440836 221.97606832 218.94844897 222.01949941 215.6875 223.125 C214.841875 223.66125 213.99625 224.1975 213.125 224.75 C210.6875 226.125 210.6875 226.125 208.375 225.8125 C207.5396875 225.4721875 207.5396875 225.4721875 206.6875 225.125 C206.3575 226.115 206.0275 227.105 205.6875 228.125 C204.615 228.24875 203.5425 228.3725 202.4375 228.5 C198.88662063 228.90290392 198.88662063 228.90290392 196.6875 230.125 C191.48218135 232.72765933 185.05286872 232.27360009 179.33984375 232.2578125 C178.56492081 232.25876923 177.78999786 232.25972595 176.99159241 232.26071167 C175.36377887 232.26138818 173.73596256 232.25957106 172.1081543 232.25537109 C169.62868149 232.25000796 167.14938919 232.25533786 164.66992188 232.26171875 C163.08072877 232.26105802 161.49153578 232.25977695 159.90234375 232.2578125 C159.16781479 232.25983673 158.43328583 232.26186096 157.67649841 232.26394653 C153.57618576 232.2454216 149.71038977 231.92049337 145.6875 231.125 C145.6875 230.465 145.6875 229.805 145.6875 229.125 C144.883125 229.2075 144.07875 229.29 143.25 229.375 C137.39206723 228.963917 132.52654994 226.3510333 127.6875 223.125 C126.85347656 223.99382812 126.01945313 224.86265625 125.16015625 225.7578125 C119.07390609 232.02096217 113.27041182 237.68481589 105.6875 242.125 C104.98882813 242.58390625 104.29015625 243.0428125 103.5703125 243.515625 C99.74292363 246.02870298 96.19796156 248.05108058 91.6875 249.125 C91.0275 248.795 90.3675 248.465 89.6875 248.125 C89.6875 248.785 89.6875 249.445 89.6875 250.125 C85.70399968 251.29661774 81.76670165 252.35325915 77.6875 253.125 C77.0677832 253.29628418 76.44806641 253.46756836 75.80957031 253.64404297 C73.60980603 254.14260897 71.67468733 254.25430345 69.421875 254.2578125 C68.20951172 254.25974609 68.20951172 254.25974609 66.97265625 254.26171875 C66.13605469 254.25785156 65.29945313 254.25398437 64.4375 254.25 C63.20580078 254.25580078 63.20580078 254.25580078 61.94921875 254.26171875 C55.07776751 254.25082897 48.37117123 253.93985507 41.8125 251.6875 C41.07257813 251.44128906 40.33265625 251.19507813 39.5703125 250.94140625 C37.6875 250.125 37.6875 250.125 35.6875 248.125 C34.3571875 247.75375 34.3571875 247.75375 33 247.375 C28.70011079 245.7524003 25.99114964 243.25028358 22.6875 240.125 C21.800625 239.3 20.91375 238.475 20 237.625 C17.52558838 234.94996041 15.61733788 232.21274061 13.6875 229.125 C12.9140625 227.9803125 12.9140625 227.9803125 12.125 226.8125 C8.22596116 219.5229926 7.22669156 212.75505803 7.375 204.5625 C7.37177734 203.66853516 7.36855469 202.77457031 7.36523438 201.85351562 C7.42179933 194.8240348 8.23722551 188.37862251 11.6875 182.125 C12.88728243 179.35050313 13.81450944 176.66776603 14.625 173.75 C15.7121126 170.0410276 17.13603114 166.66234901 18.6875 163.125 C19.71650777 160.46828902 20.70251862 157.79852089 21.6875 155.125 C18.84514001 155.125 16.00939944 155.14848387 13.16796875 155.1953125 C11.40364926 155.21387033 9.63932617 155.23208806 7.875 155.25 C6.99779297 155.26675781 6.12058594 155.28351563 5.21679688 155.30078125 C-0.04225736 155.34011599 -4.3364097 154.84932051 -9.3125 153.125 C-10.764089 157.39267167 -12.20908365 161.64413651 -13.375 166 C-14.3125 169.125 -14.3125 169.125 -16.3125 172.125 C-17.78928692 176.54237817 -17.78928692 176.54237817 -18.3125 181.125 C-18.9725 181.455 -19.6325 181.785 -20.3125 182.125 C-20.66429197 184.4556218 -20.99580179 186.78935067 -21.3125 189.125 C-21.96606336 190.46480489 -22.63388466 191.79770823 -23.3125 193.125 C-23.84446176 194.7607824 -24.34331909 196.40761733 -24.8125 198.0625 C-26.02850516 202.22380408 -27.31898 206.20005499 -29.3125 210.0625 C-30.57849985 212.6736247 -31.43365029 215.36290091 -32.3125 218.125 C-32.9725 218.125 -33.6325 218.125 -34.3125 218.125 C-34.003125 219.23875 -34.003125 219.23875 -33.6875 220.375 C-33.24885663 223.59171802 -33.84309604 224.3315748 -35.3125 227.125 C-35.76934271 228.57739013 -36.20638562 230.03613376 -36.625 231.5 C-38.09360114 236.0325355 -40.03720667 238.68594201 -43.3125 242.125 C-44.055 242.929375 -44.055 242.929375 -44.8125 243.75 C-48.33478319 246.97875959 -52.00372121 250.02585136 -56.3125 252.125 C-58.625 251.8125 -58.625 251.8125 -60.3125 251.125 C-60.3125 251.785 -60.3125 252.445 -60.3125 253.125 C-69.62997357 255.86933901 -78.92313145 254.33733447 -87.43359375 250.05859375 C-94.65909322 245.91998063 -99.5263278 240.59219972 -101.84765625 232.515625 C-103.67126663 223.13705735 -101.40097929 214.97864063 -98.3125 206.125 C-97.63533654 204.09350963 -96.99032069 202.05106897 -96.375 200 C-95.3125 197.125 -95.3125 197.125 -93.3125 196.125 C-93.126875 194.9184375 -93.126875 194.9184375 -92.9375 193.6875 C-92.24013977 189.71254668 -90.89084143 186.40902982 -89.35546875 182.6953125 C-86.70108001 176.1537852 -84.80390018 169.43878716 -83.05859375 162.60546875 C-82.14546456 159.56967275 -80.8060973 156.99605405 -79.25 154.25 C-78.16440661 152.04575258 -78.16440661 152.04575258 -77.875 149.125 C-77.26465761 145.86984058 -76.25449256 144.71432342 -74.3125 142.125 C-74.18746094 141.30257812 -74.06242188 140.48015625 -73.93359375 139.6328125 C-73.09399482 134.8909267 -71.49246552 130.52626807 -69.875 126 C-69.40610352 124.66001953 -69.40610352 124.66001953 -68.92773438 123.29296875 C-67.56525179 119.43884252 -66.14462501 115.77974236 -64.3125 112.125 C-63.79837264 110.34305073 -63.32125476 108.55014633 -62.875 106.75 C-61.77034139 102.54894981 -60.36725169 98.9664923 -58.3125 95.125 C-57.62149447 93.13327818 -56.95347297 91.13338196 -56.3125 89.125 C-55.64583333 87.45833333 -54.97916667 85.79166667 -54.3125 84.125 C-53.25355845 81.08054304 -52.29088944 78.04627582 -51.4375 74.9375 C-49.95520852 69.91417888 -48.14018988 65.03137139 -46.3125 60.125 C-45.6525 60.125 -44.9925 60.125 -44.3125 60.125 C-44.51875 59.58875 -44.725 59.0525 -44.9375 58.5 C-45.4514488 55.2449909 -44.57934844 53.12543053 -43.3125 50.125 C-42.6525 49.795 -41.9925 49.465 -41.3125 49.125 C-40.96070803 46.7943782 -40.62919821 44.46064933 -40.3125 42.125 C-39.375 40.0625 -39.375 40.0625 -38.3125 38.125 C-37.62289038 36.13279443 -36.95170943 34.13394394 -36.3125 32.125 C-35.6525 32.125 -34.9925 32.125 -34.3125 32.125 C-34.54066406 31.444375 -34.76882813 30.76375 -35.00390625 30.0625 C-35.41756557 26.12488219 -34.0240467 23.5207213 -32.25 20.125 C-31.96189453 19.52171875 -31.67378906 18.9184375 -31.37695312 18.296875 C-29.06880378 13.74977136 -26.36312728 11.20303465 -22.3125 8.125 C-21.735 7.526875 -21.1575 6.92875 -20.5625 6.3125 C-19.3125 5.125 -19.3125 5.125 -17.3125 5.125 C-16.879375 4.67125 -16.44625 4.2175 -16 3.75 C-11.44332134 -0.63791278 -5.91042609 -0.12128735 0 0 Z M105.6875 41.125 C106.6875 43.125 106.6875 43.125 106.6875 43.125 Z M368.6875 59.125 C368.6875 78.925 368.6875 98.725 368.6875 119.125 C369.0175 119.125 369.3475 119.125 369.6875 119.125 C369.6875 99.325 369.6875 79.525 369.6875 59.125 C369.3575 59.125 369.0275 59.125 368.6875 59.125 Z M30.6875 63.125 C30.6875 63.785 30.6875 64.445 30.6875 65.125 C28.9859375 65.5271875 28.9859375 65.5271875 27.25 65.9375 C26.074375 66.329375 24.89875 66.72125 23.6875 67.125 C23.3575 68.115 23.0275 69.105 22.6875 70.125 C21.6975 70.62 21.6975 70.62 20.6875 71.125 C17.12813994 75.68543008 15.83621807 79.57286268 14.6875 85.125 C21.1225 84.63 21.1225 84.63 27.6875 84.125 C28.0175 84.785 28.3475 85.445 28.6875 86.125 C28.6875 85.465 28.6875 84.805 28.6875 84.125 C29.244375 84.49625 29.80125 84.8675 30.375 85.25 C32.68016034 86.36401202 32.68016034 86.36401202 35.16015625 85.57421875 C38.65007352 83.57304517 39.12819519 81.56612385 40.4375 77.8125 C40.84484375 76.68199219 41.2521875 75.55148437 41.671875 74.38671875 C42.53023215 71.63007176 43.19707999 68.96623765 43.6875 66.125 C41.7248772 64.07704577 40.2597693 63.17523362 37.41796875 62.92578125 C35.16795617 62.93641123 32.93364438 62.99541475 30.6875 63.125 Z M14.6875 80.125 C15.6875 82.125 15.6875 82.125 15.6875 82.125 Z M105.6875 80.125 C106.6875 82.125 106.6875 82.125 106.6875 82.125 Z M648.6875 133.125 C649.6875 135.125 649.6875 135.125 649.6875 135.125 Z M164.75 144.4375 C163.42109337 146.21576108 163.42109337 146.21576108 163.6875 149.125 C162.6975 149.62 162.6975 149.62 161.6875 150.125 C161.6875 159.035 161.6875 167.945 161.6875 177.125 C166.86058431 180.61278465 166.86058431 180.61278465 172.6875 182.125 C176.29984904 180.10208454 178.3799792 178.58628121 180.6875 175.125 C181.13116589 170.84766642 181.01161568 166.54780239 181 162.25 C181.01611328 161.06535156 181.03222656 159.88070312 181.04882812 158.66015625 C181.04947266 157.51675781 181.05011719 156.37335938 181.05078125 155.1953125 C181.05376221 154.15133301 181.05674316 153.10735352 181.05981445 152.03173828 C180.63374297 148.70530738 179.65445477 146.81681346 177.6875 144.125 C173.85300083 142.34469681 168.2754258 142.04930833 164.75 144.4375 Z M257.6875 147.125 C256.1045877 150.51695493 256.95578929 153.54774762 257.6875 157.125 C257.0275 157.125 256.3675 157.125 255.6875 157.125 C255.6875 160.425 255.6875 163.725 255.6875 167.125 C256.3475 167.125 257.0075 167.125 257.6875 167.125 C257.3471875 168.7028125 257.3471875 168.7028125 257 170.3125 C256.45490083 173.9968316 256.45490083 173.9968316 257.5625 176.875 C260.73720849 180.23645605 264.13155882 181.50647818 268.6875 182.125 C271.89461749 181.7567754 272.92489495 181.08184524 275.6875 179.125 C276.58887027 175.56847541 276.58887027 175.56847541 276.6875 172.125 C277.3475 171.795 278.0075 171.465 278.6875 171.125 C279.34305119 168.59766765 279.34305119 168.59766765 279.6875 166.125 C280.3475 166.125 281.0075 166.125 281.6875 166.125 C282.45706136 163.77966049 282.45706136 163.77966049 282.6875 161.125 C281.48002059 159.41709912 281.48002059 159.41709912 279.6875 158.125 C276.68761115 155.67534202 276.27060056 153.85579614 275.8125 150.0625 C275.25131463 146.13937711 275.25131463 146.13937711 272.5 143.5 C266.17211507 142.65628201 262.31732923 142.22282788 257.6875 147.125 Z M-77.3125 149.125 C-76.3125 151.125 -76.3125 151.125 -76.3125 151.125 Z M160.6875 150.125 C160.6875 157.715 160.6875 165.305 160.6875 173.125 C161.0175 173.125 161.3475 173.125 161.6875 173.125 C161.6875 165.535 161.6875 157.945 161.6875 150.125 C161.3575 150.125 161.0275 150.125 160.6875 150.125 Z M419.6875 151.125 C419.6875 152.445 419.6875 153.765 419.6875 155.125 C420.6775 154.135 421.6675 153.145 422.6875 152.125 C421.6975 151.795 420.7075 151.465 419.6875 151.125 Z M283.6875 161.125 C284.6875 164.125 284.6875 164.125 284.6875 164.125 Z M286.6875 161.125 C286.6875 161.455 286.6875 161.785 286.6875 162.125 C292.6275 162.125 298.5675 162.125 304.6875 162.125 C304.6875 161.795 304.6875 161.465 304.6875 161.125 C298.7475 161.125 292.8075 161.125 286.6875 161.125 Z M573.6875 183.125 C577.9775 183.125 582.2675 183.125 586.6875 183.125 C582.63242802 180.42161868 577.4738279 179.3386721 573.6875 183.125 Z M79.6875 184.125 C80.6875 186.125 80.6875 186.125 80.6875 186.125 Z M76.6875 192.125 C77.6875 194.125 77.6875 194.125 77.6875 194.125 Z M-27.3125 199.125 C-26.3125 201.125 -26.3125 201.125 -26.3125 201.125 Z " fill="#FCFCFC" transform="translate(720.3125,319.875)"/>
<path d="M0 0 C0.83595703 0.00902344 1.67191406 0.01804687 2.53320312 0.02734375 C4.58475969 0.05079011 6.63616777 0.08665734 8.6875 0.125 C9.1825 1.115 9.1825 1.115 9.6875 2.125 C11.0796875 2.3415625 11.0796875 2.3415625 12.5 2.5625 C15.80622927 3.14595222 17.29428442 3.82383117 19.6875 6.125 C19.6875 6.785 19.6875 7.445 19.6875 8.125 C21.0178125 7.3825 21.0178125 7.3825 22.375 6.625 C25.661861 5.13661011 27.19943007 5.03320869 30.6875 5.125 C32.83778304 4.17521103 32.83778304 4.17521103 34.6875 3.125 C41.6875 3.125 48.6875 3.125 55.6875 3.125 C55.6875 3.785 55.6875 4.445 55.6875 5.125 C56.27917969 5.09019531 56.87085938 5.05539062 57.48046875 5.01953125 C62.61114002 4.843766 65.34742693 5.19251819 69.6875 8.125 C70.61949219 8.27324219 71.55148437 8.42148437 72.51171875 8.57421875 C83.67156517 10.50969027 94.48300938 20.21314021 100.87109375 29.1953125 C101.47050781 30.16210938 102.06992187 31.12890625 102.6875 32.125 C103.38746094 33.25035156 103.38746094 33.25035156 104.1015625 34.3984375 C104.50117187 35.09195313 104.90078125 35.78546875 105.3125 36.5 C105.71726562 37.18835938 106.12203125 37.87671875 106.5390625 38.5859375 C109.77161603 45.73273952 110.04307137 52.6506571 110 60.375 C109.99581055 61.39553467 109.99162109 62.41606934 109.98730469 63.4675293 C109.878624 70.71271557 109.21214014 77.28301307 106.6875 84.125 C106.33945312 85.06988281 105.99140625 86.01476562 105.6328125 86.98828125 C104.42873908 90.09514222 103.17779688 93.14440625 101.6875 96.125 C101.0275 96.125 100.3675 96.125 99.6875 96.125 C100.0175 97.115 100.3475 98.105 100.6875 99.125 C99.73172943 100.49038653 98.72397024 101.81981525 97.6875 103.125 C97.39746094 103.89972656 97.10742188 104.67445313 96.80859375 105.47265625 C95.23331685 109.19953086 92.7490924 111.87900242 90.1484375 114.94140625 C88.3167854 117.24121518 88.3167854 117.24121518 88.6875 121.125 C89.62722379 124.68252579 90.70454622 128.17897971 91.8125 131.6875 C92.66287535 135.0282603 92.76190781 137.70224071 92.6875 141.125 C92.978724 142.79953799 93.29820799 144.47050895 93.6875 146.125 C93.0275 146.125 92.3675 146.125 91.6875 146.125 C91.89375 147.1975 92.1 148.27 92.3125 149.375 C92.70835917 153.33359167 92.46698478 153.86261124 90.6875 157.125 C90.5328125 158.8884375 90.5328125 158.8884375 90.375 160.6875 C89.89617613 165.37997389 87.98534942 169.10596428 85.953125 173.31640625 C84.39898136 176.76526204 83.39370732 180.25083151 82.37890625 183.88671875 C81.47429597 186.81520286 80.16720123 189.44744539 78.6875 192.125 C82.94266734 188.37044058 85.55702819 184.25699129 88.35546875 179.33203125 C89.6875 177.125 89.6875 177.125 91.6875 175.125 C94.33348467 167.9466588 95.17583783 160.70195462 95.6875 153.125 C95.86839616 151.27017741 96.05560017 149.41595596 96.25 147.5625 C96.47534998 145.39567331 96.6875 143.30294013 96.6875 141.125 C97.3475 140.795 98.0075 140.465 98.6875 140.125 C99.03929197 137.7943782 99.37080179 135.46064933 99.6875 133.125 C100.625 131.0625 100.625 131.0625 101.6875 129.125 C102.05875 127.76375 102.05875 127.76375 102.4375 126.375 C104.59120755 120.77536038 108.41040034 116.27842449 112.6875 112.125 C113.43515625 111.33351563 114.1828125 110.54203125 114.953125 109.7265625 C117.900885 106.92197942 121.01736828 104.67309693 124.4375 102.5 C125.05584717 102.10538574 125.67419434 101.71077148 126.3112793 101.30419922 C130.95414763 98.41882818 135.40239416 96.52838969 140.6875 95.125 C142.18847001 94.5650935 143.68845645 94.00254396 145.1875 93.4375 C149.12577501 92.0994521 152.51302163 91.92134853 156.64453125 92.21484375 C158.73614985 92.2713452 158.73614985 92.2713452 160.53100586 91.1315918 C162.97208466 89.99216376 164.5560519 89.89349394 167.234375 89.9296875 C168.07871094 89.93613281 168.92304687 89.94257813 169.79296875 89.94921875 C171.10201172 89.97435547 171.10201172 89.97435547 172.4375 90 C173.32566406 90.00902344 174.21382812 90.01804687 175.12890625 90.02734375 C177.31538058 90.05085423 179.50130094 90.08371501 181.6875 90.125 C181.6875 90.785 181.6875 91.445 181.6875 92.125 C182.49574219 92.11339844 183.30398438 92.10179687 184.13671875 92.08984375 C185.73966797 92.07630859 185.73966797 92.07630859 187.375 92.0625 C188.43074219 92.05089844 189.48648437 92.03929687 190.57421875 92.02734375 C193.43680589 92.11713632 195.93590637 92.33670561 198.6875 93.125 C199.0175 93.785 199.3475 94.445 199.6875 95.125 C200.55375 95.269375 201.42 95.41375 202.3125 95.5625 C207.18139007 96.37398168 211.2535711 98.13490624 215.3125 100.9375 C217.62953733 102.4455331 217.62953733 102.4455331 219.9921875 101.359375 C223.66253065 99.67846422 227.31989427 97.97315046 230.96875 96.24609375 C233.56482973 95.17558386 235.9351199 94.62202264 238.6875 94.125 C239.409375 93.774375 240.13125 93.42375 240.875 93.0625 C244.4476587 91.87161377 247.55047377 92.06585541 251.28515625 92.25 C253.68579264 92.29422115 253.68579264 92.29422115 255.56005859 91.13378906 C257.94155663 90.00453156 259.50837777 89.86719497 262.12890625 89.859375 C262.95970703 89.85679687 263.79050781 89.85421875 264.64648438 89.8515625 C265.50564453 89.85929687 266.36480469 89.86703125 267.25 89.875 C268.54454102 89.86339844 268.54454102 89.86339844 269.86523438 89.8515625 C270.69474609 89.85414063 271.52425781 89.85671875 272.37890625 89.859375 C273.13373291 89.86163086 273.88855957 89.86388672 274.66625977 89.86621094 C276.6875 90.125 276.6875 90.125 279.6875 92.125 C281.93462046 92.29198296 281.93462046 92.29198296 284.375 92.125 C290.6039001 91.99769401 296.20479892 92.96190322 301.6875 96.125 C302.3475 96.455 303.0075 96.785 303.6875 97.125 C303.67178955 96.03558105 303.6560791 94.94616211 303.63989258 93.82373047 C303.58541022 89.76472425 303.55108361 85.7057501 303.52270508 81.64648438 C303.50766005 79.89284827 303.48721896 78.13924953 303.46118164 76.38574219 C303.42460879 73.85862991 303.4077308 71.33201704 303.39453125 68.8046875 C303.37904739 68.02632538 303.36356354 67.24796326 303.34761047 66.4460144 C303.34612218 61.5835311 304.11160691 58.39735786 306.6875 54.125 C307.3475 54.125 308.0075 54.125 308.6875 54.125 C308.6875 53.465 308.6875 52.805 308.6875 52.125 C313.66814782 49.47824705 318.71855351 49.80153224 324.2109375 49.7890625 C325.23047516 49.7824057 326.25001282 49.7757489 327.30044556 49.76889038 C329.45385946 49.75878084 331.60730458 49.75407283 333.76074219 49.75439453 C337.04414842 49.75002443 340.32620667 49.71369426 343.609375 49.67578125 C345.70572459 49.66991204 347.80208054 49.66594335 349.8984375 49.6640625 C351.36281754 49.64250595 351.36281754 49.64250595 352.85678101 49.62051392 C358.9987249 49.66140177 362.74279964 50.37741232 367.6875 54.125 C370.31298746 57.74676198 371.06877128 60.29560155 371.11987305 64.74145508 C371.13966721 65.84221878 371.15946136 66.94298248 371.17985535 68.07710266 C371.18944023 69.84297981 371.18944023 69.84297981 371.19921875 71.64453125 C371.22614555 73.46509285 371.22614555 73.46509285 371.25361633 75.32243347 C371.30774301 79.19408711 371.34162377 83.06561728 371.375 86.9375 C371.40817086 89.56447031 371.44266029 92.19142433 371.47851562 94.81835938 C371.56347111 101.25379554 371.63181127 107.68924763 371.6875 114.125 C372.3151123 113.33303223 372.94272461 112.54106445 373.58935547 111.72509766 C375.21905442 109.70551495 376.84095535 107.93118302 378.6875 106.125 C379.65578907 105.00855741 380.61388681 103.88320819 381.5625 102.75 C389.14448502 93.89183929 389.14448502 93.89183929 393.6875 93.125 C395.60572545 93.04355459 397.52660489 93.0174685 399.4465332 93.02734375 C401.1840258 93.03229858 401.1840258 93.03229858 402.95661926 93.03735352 C404.20456772 93.04565186 405.45251617 93.0539502 406.73828125 93.0625 C408.70534577 93.06828614 410.67241033 93.07406656 412.63947582 93.07951355 C416.78962182 93.09264383 420.93972945 93.11477085 425.08984375 93.13537598 C428.50277934 93.15198637 431.91569547 93.16658987 435.32865906 93.17602539 C437.88630453 93.18353199 440.44394175 93.19555635 443.00154114 93.21264648 C448.68436475 93.22872105 454.09029069 93.1151496 459.6875 92.125 C461.4990721 92.0633819 463.31255032 92.03767192 465.125 92.0625 C465.98996094 92.07152344 466.85492187 92.08054687 467.74609375 92.08984375 C468.38675781 92.10144531 469.02742188 92.11304688 469.6875 92.125 C469.6875 91.465 469.6875 90.805 469.6875 90.125 C477.2775 90.125 484.8675 90.125 492.6875 90.125 C492.6875 90.785 492.6875 91.445 492.6875 92.125 C493.52152344 92.09019531 494.35554688 92.05539062 495.21484375 92.01953125 C502.41572037 91.84631429 508.04338086 92.38838535 514.6875 95.125 C515.656875 95.434375 516.62625 95.74375 517.625 96.0625 C520.6875 97.125 520.6875 97.125 523.1015625 98.20703125 C523.97554687 98.59246094 524.84953125 98.97789062 525.75 99.375 C526.56597656 99.75140625 527.38195313 100.1278125 528.22265625 100.515625 C531.38597962 101.29768276 532.81679582 100.54590224 535.6875 99.125 C539.37171053 97.96710526 539.37171053 97.96710526 541.6875 99.125 C542.0175 98.135 542.3475 97.145 542.6875 96.125 C545.06057344 95.26665429 547.23618808 94.66233468 549.6875 94.125 C550.4815625 93.93808594 551.275625 93.75117188 552.09375 93.55859375 C557.40690645 92.38609163 562.25144931 91.92366479 567.6875 92.125 C567.6875 91.465 567.6875 90.805 567.6875 90.125 C574.2875 90.125 580.8875 90.125 587.6875 90.125 C587.6875 90.785 587.6875 91.445 587.6875 92.125 C588.52152344 92.09019531 589.35554688 92.05539062 590.21484375 92.01953125 C597.45706637 91.84531971 602.99108163 92.47819432 609.6875 95.125 C610.8425 95.41375 611.9975 95.7025 613.1875 96 C628.676642 100.97865279 640.60758824 113.03934352 648 127.1875 C650.16019083 131.64851909 651.37996327 135.20441235 651.6875 140.125 C651.873125 140.764375 652.05875 141.40375 652.25 142.0625 C652.95901599 145.40500396 652.74433166 148.71510051 652.6875 152.125 C653.3475 152.125 654.0075 152.125 654.6875 152.125 C654.6875 154.435 654.6875 156.745 654.6875 159.125 C654.0275 159.125 653.3675 159.125 652.6875 159.125 C652.6875 162.755 652.6875 166.385 652.6875 170.125 C653.3475 170.125 654.0075 170.125 654.6875 170.125 C654.501875 170.723125 654.31625 171.32125 654.125 171.9375 C653.46656313 174.28908762 653.46656313 174.28908762 654.6875 177.125 C654.0275 177.125 653.3675 177.125 652.6875 177.125 C652.6875 177.785 652.6875 178.445 652.6875 179.125 C653.3475 179.125 654.0075 179.125 654.6875 179.125 C654.6875 181.105 654.6875 183.085 654.6875 185.125 C654.0275 185.125 653.3675 185.125 652.6875 185.125 C652.749375 186.919375 652.749375 186.919375 652.8125 188.75 C652.80227475 194.5374911 651.29516369 198.61542039 647.6875 203.125 C647.38714844 203.73730469 647.08679687 204.34960938 646.77734375 204.98046875 C645.61332468 207.27095789 644.2741176 209.24543975 642.75 211.3125 C642.24597656 212.00730469 641.74195313 212.70210937 641.22265625 213.41796875 C639.6875 215.125 639.6875 215.125 636.6875 216.125 C635.66077669 217.09754266 634.66213129 218.10025913 633.6875 219.125 C629.56766039 222.48670932 625.82810111 224.60618604 620.6875 226.125 C619.2025 227.115 619.2025 227.115 617.6875 228.125 C616.49125 228.29 615.295 228.455 614.0625 228.625 C612.94875 228.79 611.835 228.955 610.6875 229.125 C610.3575 229.785 610.0275 230.445 609.6875 231.125 C608.800625 231.104375 607.91375 231.08375 607 231.0625 C603.85627412 231.00853115 603.85627412 231.00853115 601.52661133 231.62060547 C597.65369772 232.30866459 593.87504804 232.26771905 589.94921875 232.2578125 C589.10962112 232.25876923 588.2700235 232.25972595 587.40498352 232.26071167 C585.63237432 232.26139054 583.85976259 232.2595567 582.0871582 232.25537109 C579.39463613 232.25003889 576.7022824 232.25531562 574.00976562 232.26171875 C572.28124964 232.26105752 570.55273375 232.25977544 568.82421875 232.2578125 C567.63006599 232.26084885 567.63006599 232.26084885 566.41178894 232.26394653 C562.71048701 232.24867679 559.15552491 232.09510665 555.49145508 231.55419922 C551.83393363 231.14152207 549.26299902 231.42609968 545.6875 232.125 C541.3926888 232.31269098 537.10067795 232.31081822 532.80200195 232.31030273 C530.75906564 232.31249029 528.71666929 232.33068735 526.67382812 232.34960938 C524.71799805 232.35250977 524.71799805 232.35250977 522.72265625 232.35546875 C521.5406665 232.35957764 520.35867676 232.36368652 519.14086914 232.36791992 C513.39106308 231.96346202 509.1872657 230.64044195 504.6875 227.125 C501.3831746 224.91294754 501.3831746 224.91294754 497.6875 224.125 C494.68374446 225.13334287 492.02602091 226.42347742 489.23828125 227.92578125 C486.6875 229.125 486.6875 229.125 482.6875 229.125 C482.0275 229.785 481.3675 230.445 480.6875 231.125 C473.37984032 232.35540868 466.07870996 232.31113563 458.68676758 232.31030273 C456.49476139 232.31250526 454.30324671 232.33075785 452.11132812 232.34960938 C450.70573087 232.35254127 449.30013125 232.35452743 447.89453125 232.35546875 C445.99924683 232.36163208 445.99924683 232.36163208 444.06567383 232.36791992 C440.6875 232.125 440.6875 232.125 438.29638672 231.125 C434.45960526 229.65434149 430.81154509 229.85888129 426.73828125 229.89453125 C425.88445358 229.89498947 425.03062592 229.89544769 424.15092468 229.8959198 C422.35312503 229.89893184 420.55532775 229.90678667 418.75756836 229.91918945 C415.99909278 229.93750602 413.24095207 229.93969857 410.48242188 229.93945312 C408.73437209 229.9443665 406.98632457 229.95019403 405.23828125 229.95703125 C404.4112117 229.95814407 403.58414215 229.9592569 402.73200989 229.96040344 C398.57666751 229.88812868 398.57666751 229.88812868 394.6875 231.125 C394.0275 230.465 393.3675 229.805 392.6875 229.125 C392.06875 228.8775 391.45 228.63 390.8125 228.375 C387.75572533 226.57689725 386.45076856 224.14774611 384.6875 221.125 C384.6875 220.465 384.6875 219.805 384.6875 219.125 C384.06875 218.50625 383.45 217.8875 382.8125 217.25 C380.74351037 215.18101037 379.91225237 213.72759879 378.6875 211.125 C377.37443567 209.1116347 376.03912508 207.11268394 374.6875 205.125 C374.32011719 204.5578125 373.95273438 203.990625 373.57421875 203.40625 C372.63763091 201.96220184 371.66546036 200.54135638 370.6875 199.125 C370.3575 199.125 370.0275 199.125 369.6875 199.125 C369.67348145 200.27500488 369.67348145 200.27500488 369.65917969 201.44824219 C369.60547227 204.92448103 369.52182424 208.39937474 369.4375 211.875 C369.42332031 213.0815625 369.40914062 214.288125 369.39453125 215.53125 C369.36230469 216.69140625 369.33007812 217.8515625 369.296875 219.046875 C369.2654541 220.64934082 369.2654541 220.64934082 369.23339844 222.28417969 C368.56209422 225.77760361 367.43738354 226.93641992 364.6875 229.125 C361.9375 230.375 361.9375 230.375 359.6875 231.125 C359.6875 230.465 359.6875 229.805 359.6875 229.125 C359.08472733 229.14641052 358.48195465 229.16782104 357.86091614 229.18988037 C351.58358637 229.40878523 345.30585252 229.59874749 339.02709961 229.77197266 C336.68442331 229.84040274 334.34194995 229.9161945 331.99975586 229.99951172 C328.63161146 230.11804298 325.26362298 230.21002065 321.89453125 230.296875 C320.32551811 230.36065338 320.32551811 230.36065338 318.72480774 230.42572021 C311.40751548 230.5773646 311.40751548 230.5773646 307.48706055 228.11425781 C306.89320557 227.45780273 306.29935059 226.80134766 305.6875 226.125 C305.171875 226.434375 304.65625 226.74375 304.125 227.0625 C301.02866646 228.41218385 298.02213986 228.64862288 294.6875 229.125 C294.048125 229.455 293.40875 229.785 292.75 230.125 C287.31461045 232.76034039 280.22943258 232.2838227 274.27734375 232.29296875 C273.50620743 232.29629715 272.73507111 232.29962555 271.94056702 232.30305481 C270.32293284 232.30808097 268.70528846 232.31046448 267.08764648 232.31030273 C264.62791845 232.3124974 262.16863385 232.33072107 259.70898438 232.34960938 C258.12760568 232.35254269 256.54622488 232.3545279 254.96484375 232.35546875 C254.23861313 232.36265427 253.51238251 232.36983978 252.7641449 232.37724304 C248.07690489 232.35647552 244.13406931 231.5678406 239.6875 230.125 C238.1096875 229.75375 238.1096875 229.75375 236.5 229.375 C231.85341005 228.1000853 227.74542074 225.59348332 223.5546875 223.26953125 C220.31440836 221.97606832 218.94844897 222.01949941 215.6875 223.125 C214.841875 223.66125 213.99625 224.1975 213.125 224.75 C210.6875 226.125 210.6875 226.125 208.375 225.8125 C207.5396875 225.4721875 207.5396875 225.4721875 206.6875 225.125 C206.3575 226.115 206.0275 227.105 205.6875 228.125 C204.615 228.24875 203.5425 228.3725 202.4375 228.5 C198.88662063 228.90290392 198.88662063 228.90290392 196.6875 230.125 C191.48218135 232.72765933 185.05286872 232.27360009 179.33984375 232.2578125 C178.56492081 232.25876923 177.78999786 232.25972595 176.99159241 232.26071167 C175.36377887 232.26138818 173.73596256 232.25957106 172.1081543 232.25537109 C169.62868149 232.25000796 167.14938919 232.25533786 164.66992188 232.26171875 C163.08072877 232.26105802 161.49153578 232.25977695 159.90234375 232.2578125 C159.16781479 232.25983673 158.43328583 232.26186096 157.67649841 232.26394653 C153.57618576 232.2454216 149.71038977 231.92049337 145.6875 231.125 C145.6875 230.465 145.6875 229.805 145.6875 229.125 C144.883125 229.2075 144.07875 229.29 143.25 229.375 C137.39206723 228.963917 132.52654994 226.3510333 127.6875 223.125 C126.85347656 223.99382812 126.01945313 224.86265625 125.16015625 225.7578125 C119.07390609 232.02096217 113.27041182 237.68481589 105.6875 242.125 C104.98882813 242.58390625 104.29015625 243.0428125 103.5703125 243.515625 C99.74292363 246.02870298 96.19796156 248.05108058 91.6875 249.125 C91.0275 248.795 90.3675 248.465 89.6875 248.125 C89.6875 248.785 89.6875 249.445 89.6875 250.125 C85.70399968 251.29661774 81.76670165 252.35325915 77.6875 253.125 C77.0677832 253.29628418 76.44806641 253.46756836 75.80957031 253.64404297 C73.60980603 254.14260897 71.67468733 254.25430345 69.421875 254.2578125 C68.20951172 254.25974609 68.20951172 254.25974609 66.97265625 254.26171875 C66.13605469 254.25785156 65.29945313 254.25398437 64.4375 254.25 C63.20580078 254.25580078 63.20580078 254.25580078 61.94921875 254.26171875 C55.07776751 254.25082897 48.37117123 253.93985507 41.8125 251.6875 C41.07257813 251.44128906 40.33265625 251.19507813 39.5703125 250.94140625 C37.6875 250.125 37.6875 250.125 35.6875 248.125 C34.3571875 247.75375 34.3571875 247.75375 33 247.375 C28.70011079 245.7524003 25.99114964 243.25028358 22.6875 240.125 C21.800625 239.3 20.91375 238.475 20 237.625 C17.52558838 234.94996041 15.61733788 232.21274061 13.6875 229.125 C12.9140625 227.9803125 12.9140625 227.9803125 12.125 226.8125 C8.22596116 219.5229926 7.22669156 212.75505803 7.375 204.5625 C7.37177734 203.66853516 7.36855469 202.77457031 7.36523438 201.85351562 C7.42179933 194.8240348 8.23722551 188.37862251 11.6875 182.125 C12.88728243 179.35050313 13.81450944 176.66776603 14.625 173.75 C15.7121126 170.0410276 17.13603114 166.66234901 18.6875 163.125 C19.71650777 160.46828902 20.70251862 157.79852089 21.6875 155.125 C18.84514001 155.125 16.00939944 155.14848387 13.16796875 155.1953125 C11.40364926 155.21387033 9.63932617 155.23208806 7.875 155.25 C6.99779297 155.26675781 6.12058594 155.28351563 5.21679688 155.30078125 C-0.04225736 155.34011599 -4.3364097 154.84932051 -9.3125 153.125 C-10.764089 157.39267167 -12.20908365 161.64413651 -13.375 166 C-14.3125 169.125 -14.3125 169.125 -16.3125 172.125 C-17.78928692 176.54237817 -17.78928692 176.54237817 -18.3125 181.125 C-18.9725 181.455 -19.6325 181.785 -20.3125 182.125 C-20.66429197 184.4556218 -20.99580179 186.78935067 -21.3125 189.125 C-21.96606336 190.46480489 -22.63388466 191.79770823 -23.3125 193.125 C-23.84446176 194.7607824 -24.34331909 196.40761733 -24.8125 198.0625 C-26.02850516 202.22380408 -27.31898 206.20005499 -29.3125 210.0625 C-30.57849985 212.6736247 -31.43365029 215.36290091 -32.3125 218.125 C-32.9725 218.125 -33.6325 218.125 -34.3125 218.125 C-34.003125 219.23875 -34.003125 219.23875 -33.6875 220.375 C-33.24885663 223.59171802 -33.84309604 224.3315748 -35.3125 227.125 C-35.76934271 228.57739013 -36.20638562 230.03613376 -36.625 231.5 C-38.09360114 236.0325355 -40.03720667 238.68594201 -43.3125 242.125 C-44.055 242.929375 -44.055 242.929375 -44.8125 243.75 C-48.33478319 246.97875959 -52.00372121 250.02585136 -56.3125 252.125 C-58.625 251.8125 -58.625 251.8125 -60.3125 251.125 C-60.3125 251.785 -60.3125 252.445 -60.3125 253.125 C-69.62997357 255.86933901 -78.92313145 254.33733447 -87.43359375 250.05859375 C-94.65909322 245.91998063 -99.5263278 240.59219972 -101.84765625 232.515625 C-103.67126663 223.13705735 -101.40097929 214.97864063 -98.3125 206.125 C-97.63533654 204.09350963 -96.99032069 202.05106897 -96.375 200 C-95.3125 197.125 -95.3125 197.125 -93.3125 196.125 C-93.126875 194.9184375 -93.126875 194.9184375 -92.9375 193.6875 C-92.24013977 189.71254668 -90.89084143 186.40902982 -89.35546875 182.6953125 C-86.70108001 176.1537852 -84.80390018 169.43878716 -83.05859375 162.60546875 C-82.14546456 159.56967275 -80.8060973 156.99605405 -79.25 154.25 C-78.16440661 152.04575258 -78.16440661 152.04575258 -77.875 149.125 C-77.26465761 145.86984058 -76.25449256 144.71432342 -74.3125 142.125 C-74.18746094 141.30257812 -74.06242188 140.48015625 -73.93359375 139.6328125 C-73.09399482 134.8909267 -71.49246552 130.52626807 -69.875 126 C-69.40610352 124.66001953 -69.40610352 124.66001953 -68.92773438 123.29296875 C-67.56525179 119.43884252 -66.14462501 115.77974236 -64.3125 112.125 C-63.79837264 110.34305073 -63.32125476 108.55014633 -62.875 106.75 C-61.77034139 102.54894981 -60.36725169 98.9664923 -58.3125 95.125 C-57.62149447 93.13327818 -56.95347297 91.13338196 -56.3125 89.125 C-55.64583333 87.45833333 -54.97916667 85.79166667 -54.3125 84.125 C-53.25355845 81.08054304 -52.29088944 78.04627582 -51.4375 74.9375 C-49.95520852 69.91417888 -48.14018988 65.03137139 -46.3125 60.125 C-45.6525 60.125 -44.9925 60.125 -44.3125 60.125 C-44.51875 59.58875 -44.725 59.0525 -44.9375 58.5 C-45.4514488 55.2449909 -44.57934844 53.12543053 -43.3125 50.125 C-42.6525 49.795 -41.9925 49.465 -41.3125 49.125 C-40.96070803 46.7943782 -40.62919821 44.46064933 -40.3125 42.125 C-39.375 40.0625 -39.375 40.0625 -38.3125 38.125 C-37.62289038 36.13279443 -36.95170943 34.13394394 -36.3125 32.125 C-35.6525 32.125 -34.9925 32.125 -34.3125 32.125 C-34.54066406 31.444375 -34.76882813 30.76375 -35.00390625 30.0625 C-35.41756557 26.12488219 -34.0240467 23.5207213 -32.25 20.125 C-31.96189453 19.52171875 -31.67378906 18.9184375 -31.37695312 18.296875 C-29.06880378 13.74977136 -26.36312728 11.20303465 -22.3125 8.125 C-21.735 7.526875 -21.1575 6.92875 -20.5625 6.3125 C-19.3125 5.125 -19.3125 5.125 -17.3125 5.125 C-16.879375 4.67125 -16.44625 4.2175 -16 3.75 C-11.44332134 -0.63791278 -5.91042609 -0.12128735 0 0 Z M105.6875 41.125 C106.6875 43.125 106.6875 43.125 106.6875 43.125 Z M368.6875 59.125 C368.6875 78.925 368.6875 98.725 368.6875 119.125 C369.0175 119.125 369.3475 119.125 369.6875 119.125 C369.6875 99.325 369.6875 79.525 369.6875 59.125 C369.3575 59.125 369.0275 59.125 368.6875 59.125 Z M-18.3125 19.125 C-22.26490245 25.18590167 -24.40537082 31.66546255 -26.6875 38.5 C-27.48398402 40.8438829 -28.28085898 43.18763298 -29.078125 45.53125 C-29.46162109 46.665625 -29.84511719 47.8 -30.24023438 48.96875 C-31.60669994 52.99098744 -33.01390485 56.99769745 -34.4375 61 C-35.96583129 65.30859914 -37.48703191 69.61937653 -38.98828125 73.9375 C-41.81691509 82.06942724 -44.68298163 90.18124025 -47.6875 98.25 C-51.72380634 109.10409687 -55.46857249 120.05747531 -59.23681641 131.00683594 C-61.64488043 137.98727027 -64.09154667 144.95421945 -66.5390625 151.92089844 C-67.24710939 153.93865328 -67.95212326 155.95743716 -68.65625 157.9765625 C-71.11034402 164.99134627 -73.62166531 171.98331537 -76.1796875 178.9609375 C-76.70876092 180.40664933 -77.23781335 181.85236884 -77.7668457 183.2980957 C-78.81055443 186.14980007 -79.85928057 188.99958945 -80.91088867 191.84838867 C-83.46117213 198.78917004 -85.90605265 205.75386158 -88.1484375 212.80078125 C-88.3593251 213.45325333 -88.57021271 214.1057254 -88.78749084 214.77796936 C-90.88909017 221.51522224 -91.87042251 227.12043515 -88.5625 233.5 C-84.10548393 238.69985209 -81.11589798 241.6886198 -74.078125 242.49609375 C-66.36991856 242.64169321 -60.33758742 242.27567115 -54.3125 237.125 C-50.12055885 232.71311132 -47.94267622 228.55847779 -45.875 222.875 C-45.57698486 222.08270996 -45.27896973 221.29041992 -44.97192383 220.47412109 C-42.77073896 214.55547071 -40.75100178 208.58097757 -38.79101562 202.57885742 C-33.52025942 186.50133973 -27.63193617 170.61964718 -21.73046875 154.76464844 C-18.7201683 146.62019373 -16.00468888 138.37907361 -13.3125 130.125 C-11.3125 132.125 -11.3125 132.125 -9.5625 135.5 C-6.96486084 140.1699131 -3.34648849 142.44700384 1.6875 144.125 C7.82266234 144.60905868 13.45157877 143.88873861 19.43359375 142.578125 C24.26154575 141.6075142 28.35238101 141.64778915 32.6875 144.125 C34.68508533 148.12017066 34.27448957 153.94533765 33.12719727 158.20556641 C32.33272076 160.37538307 31.46766206 162.49900913 30.5625 164.625 C29.91965685 166.20405445 29.27774912 167.78349001 28.63671875 169.36328125 C28.31106934 170.15428223 27.98541992 170.9452832 27.64990234 171.76025391 C26.16035492 175.42026312 24.76238735 179.11280041 23.375 182.8125 C23.13313965 183.44671875 22.8912793 184.0809375 22.64208984 184.734375 C18.6452681 195.34749997 16.17715248 207.20865166 20.6875 218.125 C25.98111951 229.26851768 33.47156609 235.75899404 44.890625 240.21484375 C57.20947618 244.22363191 73.67889263 243.82580528 85.6875 239.125 C86.47253906 238.88136719 87.25757813 238.63773438 88.06640625 238.38671875 C102.52291557 233.49053341 115.31776727 221.61599931 123.6875 209.125 C123.6875 208.465 123.6875 207.805 123.6875 207.125 C124.47511719 207.64449219 125.26273438 208.16398438 126.07421875 208.69921875 C146.1913495 221.57894388 168.81659408 224.38352992 192.375 220.125 C200.52921308 217.98348949 212.16240676 213.7468346 217.6875 207.125 C220.31128482 208.27946532 222.19675574 209.54166378 224.4375 211.375 C241.36931378 223.79659264 265.70961417 222.76241131 285.5 220.5 C296.58124602 218.51321094 306.65917167 213.77745246 315.6875 207.125 C315.6875 211.085 315.6875 215.045 315.6875 219.125 C329.8775 219.125 344.0675 219.125 358.6875 219.125 C358.584375 215.268125 358.48125 211.41125 358.375 207.4375 C358.4375417 199.64450191 358.80307821 193.61469298 364.30981445 187.76635742 C367.54357358 184.84227368 370.76060297 182.08844852 374.6875 180.125 C375.09718018 181.21155884 375.09718018 181.21155884 375.51513672 182.32006836 C376.65127291 185.03832508 377.94952538 187.46844983 379.4453125 190.00390625 C379.98929688 190.92623047 380.53328125 191.84855469 381.09375 192.79882812 C381.6609375 193.75208984 382.228125 194.70535156 382.8125 195.6875 C383.35648438 196.61369141 383.90046875 197.53988281 384.4609375 198.49414062 C385.5886737 200.39785418 386.74372199 202.28561603 387.92358398 204.1574707 C389.6875 207.125 389.6875 207.125 391.15649414 210.47338867 C393.00601186 214.19422211 394.46131493 216.47967119 397.6875 219.125 C404.4766192 221.19363401 411.86961758 220.52905241 418.875 220.3125 C420.81961026 220.29192469 422.7642876 220.27689854 424.70898438 220.26757812 C427.44811953 220.25422037 430.18425735 220.23309098 432.9226532 220.16703796 C437.03464057 220.07221183 440.66018043 220.18495469 444.6875 221.125 C463.33265735 222.44457625 480.60449326 221.73317134 496.05078125 210.5390625 C498.6875 209.125 498.6875 209.125 500.90234375 209.75 C502.6875 211.125 502.6875 211.125 504.9375 213.5 C513.00161208 221.19756153 521.76084163 221.30663258 532.375 221.3125 C533.52162109 221.32474609 534.66824219 221.33699219 535.84960938 221.34960938 C540.86628685 221.35822416 545.47976171 221.33343279 550.33203125 219.98828125 C554.77234666 218.83781754 558.19595033 219.63348777 562.62158203 220.59179688 C568.57617528 221.62737831 574.59821936 221.41128769 580.625 221.375 C581.90568359 221.38273438 583.18636719 221.39046875 584.50585938 221.3984375 C601.22176082 221.36437555 617.66091749 218.63721445 630.60546875 207.23828125 C638.64898526 199.07403654 642.6875 188.61409052 642.6875 177.125 C628.8275 177.125 614.9675 177.125 600.6875 177.125 C599.3675 180.755 598.0475 184.385 596.6875 188.125 C590.24612623 193.6001677 583.62204432 193.96900735 575.44921875 193.5390625 C570.79414719 193.02666625 567.2089933 192.31111299 563.6875 189.125 C561.89946218 186.83847891 560.91666197 184.81970124 559.6875 182.125 C559.295625 181.320625 558.90375 180.51625 558.5 179.6875 C557.6875 177.125 557.6875 177.125 556.6875 169.125 C585.0675 169.125 613.4475 169.125 642.6875 169.125 C642.6875 151.33973498 641.96276148 134.01666041 629.6875 120.125 C617.35642488 108.50847393 602.63166891 102.63778406 585.6875 102.125 C584.4396875 102.08503906 583.191875 102.04507813 581.90625 102.00390625 C564.7861221 101.64061441 549.7740045 104.38446951 535.28125 113.83203125 C532.6875 115.125 532.6875 115.125 530.78125 115.07421875 C528.27997648 113.94024587 525.94354536 112.5697537 523.57910156 111.17675781 C502.76331802 99.60288126 474.56706553 98.85160323 452.0234375 105.1484375 C448.89322089 106.09353502 445.7857175 107.08042912 442.6875 108.125 C443.3475 107.135 444.0075 106.145 444.6875 105.125 C437.73232752 104.87031217 430.77836624 104.69586988 423.81958008 104.57568359 C421.45551629 104.52555981 419.09175998 104.45743831 416.72875977 104.37060547 C403.39466992 103.14306017 403.39466992 103.14306017 391.23535156 107.20874023 C388.9495561 109.73661922 387.31027069 112.13884886 385.6875 115.125 C384.87539062 116.09050781 384.06328125 117.05601562 383.2265625 118.05078125 C382.59492187 118.83839844 381.96328125 119.62601562 381.3125 120.4375 C377.50583838 125.14416043 373.61840351 129.77209857 369.66845703 134.35864258 C366.1308789 138.500375 362.97705248 142.73893002 359.6875 147.125 C359.3575 119.075 359.0275 91.025 358.6875 62.125 C344.4975 62.125 330.3075 62.125 315.6875 62.125 C315.3575 79.945 315.0275 97.765 314.6875 116.125 C312.3775 114.475 310.0675 112.825 307.6875 111.125 C305.15124826 109.96020291 302.7378511 108.93230616 300.125 108 C299.42592529 107.74847168 298.72685059 107.49694336 298.0065918 107.23779297 C276.51633774 99.72460343 252.36834188 99.35987053 231.3125 108.71484375 C228.0113837 110.48821129 225.20081304 112.59779585 222.40625 115.0859375 C220.6875 116.125 220.6875 116.125 218.8828125 116.03125 C215.7603473 114.74226081 212.94270867 112.99659657 210.0625 111.25 C204.41248578 107.94107118 199.14856474 105.45521921 192.6875 104.125 C191.75164062 103.92261719 190.81578125 103.72023438 189.8515625 103.51171875 C168.72584022 99.60053339 146.03239301 101.48411136 127.9375 113.8125 C117.17225365 122.06119525 110.62386158 132.98845973 107.6875 146.125 C107.51194054 148.68752616 107.52768937 151.1934594 107.57788086 153.76074219 C107.86518998 170.08228192 101.40659623 185.0246224 90.5625 197.24609375 C80.97238662 206.85618654 80.97238662 206.85618654 73.57421875 207.3203125 C72.51847656 207.29710937 71.46273437 207.27390625 70.375 207.25 C69.30636719 207.23195313 68.23773437 207.21390625 67.13671875 207.1953125 C66.32847656 207.17210937 65.52023437 207.14890625 64.6875 207.125 C62.90505569 203.56011138 63.20595749 199.81947705 64.28320312 196.02880859 C65.11191075 193.76309752 66.00634241 191.53803268 66.9375 189.3125 C67.41848145 188.12382324 67.41848145 188.12382324 67.90917969 186.91113281 C68.54270948 185.34748648 69.18090226 183.78571961 69.82421875 182.22607422 C70.89436831 179.62151903 71.91519772 176.99864297 72.9375 174.375 C73.9433834 171.85815133 74.99421538 169.53610647 76.25 167.125 C79.8765029 159.55664613 81.27011351 152.10252039 81.25 143.75 C81.2504834 142.83822998 81.2509668 141.92645996 81.25146484 140.98706055 C81.04078178 132.45439652 78.88953577 125.32703577 72.6875 119.125 C72.6875 118.135 72.6875 117.145 72.6875 116.125 C73.656875 115.361875 74.62625 114.59875 75.625 113.8125 C84.24819355 106.78101154 89.55875886 95.21816245 93.6875 85.125 C94.04094482 84.30620361 94.39438965 83.48740723 94.75854492 82.64379883 C97.65285889 75.4759828 98.29971248 69.18655459 98.1875 61.5 C98.20296875 60.43265625 98.2184375 59.3653125 98.234375 58.265625 C98.20021701 51.31447446 97.07714648 46.19194129 93.6875 40.125 C93.22988281 39.26648438 92.77226563 38.40796875 92.30078125 37.5234375 C85.09493384 26.31434154 72.51370363 19.03547039 59.625 16 C44.72622973 13.19947927 29.64752457 13.95454972 16.6875 22.125 C16.625625 21.5475 16.56375 20.97 16.5 20.375 C14.95701734 16.10212495 11.28052351 14.44432035 7.4375 12.375 C-2.5082777 9.05974077 -10.86630194 11.88564077 -18.3125 19.125 Z M105.6875 80.125 C106.6875 82.125 106.6875 82.125 106.6875 82.125 Z M648.6875 133.125 C649.6875 135.125 649.6875 135.125 649.6875 135.125 Z M-77.3125 149.125 C-76.3125 151.125 -76.3125 151.125 -76.3125 151.125 Z M573.6875 183.125 C577.9775 183.125 582.2675 183.125 586.6875 183.125 C582.63242802 180.42161868 577.4738279 179.3386721 573.6875 183.125 Z M79.6875 184.125 C80.6875 186.125 80.6875 186.125 80.6875 186.125 Z M76.6875 192.125 C77.6875 194.125 77.6875 194.125 77.6875 194.125 Z M-27.3125 199.125 C-26.3125 201.125 -26.3125 201.125 -26.3125 201.125 Z " fill="#030303" transform="translate(720.3125,319.875)"/>
<path d="M0 0 C0.79857422 -0.01611328 1.59714844 -0.03222656 2.41992188 -0.04882812 C8.83386397 -0.05414208 12.02189409 1.45740372 16.8125 5.8125 C20.96825131 10.43000145 20.0625 12.53769287 20.0625 19.3125 C29.6325 19.3125 39.2025 19.3125 49.0625 19.3125 C49.0625 26.2425 49.0625 33.1725 49.0625 40.3125 C40.1525 40.3125 31.2425 40.3125 22.0625 40.3125 C22.0625 42.9525 22.0625 45.5925 22.0625 48.3125 C20.48587321 52.47882016 18.03879045 55.57432917 14.5 58.25 C7.25891377 61.40637092 -3.58292641 62.00685147 -11.0625 59.1875 C-17.61134835 54.91651195 -19.41796974 50.69826818 -21.32226562 43.37060547 C-22.31390103 38.44154791 -22.37252896 33.63741822 -22.3125 28.625 C-22.32410156 27.64466797 -22.33570313 26.66433594 -22.34765625 25.65429688 C-22.31707654 18.04504638 -21.2994635 11.31329773 -16 5.4375 C-15.51660156 4.88320313 -15.03320312 4.32890625 -14.53515625 3.7578125 C-10.09414868 -0.25972491 -5.73194091 -0.02301984 0 0 Z M-8.9375 15.3125 C-10.5204123 18.70445493 -9.66921071 21.73524762 -8.9375 25.3125 C-9.5975 25.3125 -10.2575 25.3125 -10.9375 25.3125 C-10.9375 28.6125 -10.9375 31.9125 -10.9375 35.3125 C-10.2775 35.3125 -9.6175 35.3125 -8.9375 35.3125 C-9.2778125 36.8903125 -9.2778125 36.8903125 -9.625 38.5 C-10.17009917 42.1843316 -10.17009917 42.1843316 -9.0625 45.0625 C-5.88779151 48.42395605 -2.49344118 49.69397818 2.0625 50.3125 C5.26961749 49.9442754 6.29989495 49.26934524 9.0625 47.3125 C9.96387027 43.75597541 9.96387027 43.75597541 10.0625 40.3125 C10.7225 39.9825 11.3825 39.6525 12.0625 39.3125 C12.71805119 36.78516765 12.71805119 36.78516765 13.0625 34.3125 C13.7225 34.3125 14.3825 34.3125 15.0625 34.3125 C15.83206136 31.96716049 15.83206136 31.96716049 16.0625 29.3125 C14.85502059 27.60459912 14.85502059 27.60459912 13.0625 26.3125 C10.06261115 23.86284202 9.64560056 22.04329614 9.1875 18.25 C8.62631463 14.32687711 8.62631463 14.32687711 5.875 11.6875 C-0.45288493 10.84378201 -4.30767077 10.41032788 -8.9375 15.3125 Z M17.0625 29.3125 C18.0625 32.3125 18.0625 32.3125 18.0625 32.3125 Z M20.0625 29.3125 C20.0625 29.6425 20.0625 29.9725 20.0625 30.3125 C26.0025 30.3125 31.9425 30.3125 38.0625 30.3125 C38.0625 29.9825 38.0625 29.6525 38.0625 29.3125 C32.1225 29.3125 26.1825 29.3125 20.0625 29.3125 Z " fill="#040404" transform="translate(986.9375,451.6875)"/>
<path d="M0 0 C3.97252759 1.80065755 7.02884078 4.05768156 9 8 C9.07033769 9.87379605 9.0843022 11.75001102 9.0625 13.625 C9.05347656 14.62789063 9.04445313 15.63078125 9.03515625 16.6640625 C9.02355469 17.43492187 9.01195312 18.20578125 9 19 C8.26700684 19.0093457 7.53401367 19.01869141 6.77880859 19.02832031 C-29.60905184 18.8733961 -29.60905184 18.8733961 -61 35 C-63.36393086 38.16175753 -65.23811038 41.47622076 -67 45 C-72.62305177 42.768691 -74.81855936 37.62609943 -77.875 32.6875 C-78.49375 31.73681641 -79.1125 30.78613281 -79.75 29.80664062 C-80.32492187 28.88431641 -80.89984375 27.96199219 -81.4921875 27.01171875 C-82.02183105 26.17084717 -82.55147461 25.32997559 -83.09716797 24.46362305 C-84 22 -84 22 -83.29467773 19.34082031 C-81.65544366 16.3770307 -79.64211122 14.39198861 -77.1875 12.0625 C-74.28916335 9.26049535 -71.47146256 6.51264188 -68.9375 3.375 C-68.298125 2.59125 -67.65875 1.8075 -67 1 C-66.67 1 -66.34 1 -66 1 C-66 3.97 -66 6.94 -66 10 C-52.14 10 -38.28 10 -24 10 C-23.67 8.35 -23.34 6.7 -23 5 C-16.43976888 -1.05559796 -8.57887322 -1.30752804 0 0 Z M-68 21 C-68 22.32 -68 23.64 -68 25 C-67.01 24.01 -66.02 23.02 -65 22 C-65.99 21.67 -66.98 21.34 -68 21 Z " fill="#070707" transform="translate(1208,450)"/>
<path d="M0 0 C5.23038011 2.93830234 8.24428333 7.66269021 10.2734375 13.19921875 C10.95903395 18.21647272 10.92764319 23.14301307 10.8359375 28.19921875 C10.84689453 29.5140625 10.85785156 30.82890625 10.86914062 32.18359375 C10.80043375 41.30786736 9.68850947 47.97531395 3.8984375 55.13671875 C-2.48367302 60.15123416 -9.97167124 59.80915402 -17.7265625 59.19921875 C-23.34057478 58.02511073 -26.52159904 54.86930836 -29.7265625 50.19921875 C-32.28551199 43.87743763 -32.09872501 37.64293158 -32.09716797 30.94140625 C-32.10153719 28.83641356 -32.13790002 26.73352843 -32.17578125 24.62890625 C-32.23902984 17.15931434 -31.99090724 11.49602995 -27.7265625 5.19921875 C-20.48507659 -2.14588328 -9.72384969 -2.85585843 0 0 Z M-17.6640625 11.51171875 C-18.99296913 13.28997983 -18.99296913 13.28997983 -18.7265625 16.19921875 C-19.7165625 16.69421875 -19.7165625 16.69421875 -20.7265625 17.19921875 C-20.7265625 26.10921875 -20.7265625 35.01921875 -20.7265625 44.19921875 C-15.55347819 47.6870034 -15.55347819 47.6870034 -9.7265625 49.19921875 C-6.11421346 47.17630329 -4.0340833 45.66049996 -1.7265625 42.19921875 C-1.28289661 37.92188517 -1.40244682 33.62202114 -1.4140625 29.32421875 C-1.39794922 28.13957031 -1.38183594 26.95492188 -1.36523438 25.734375 C-1.36458984 24.59097656 -1.36394531 23.44757813 -1.36328125 22.26953125 C-1.36030029 21.22555176 -1.35731934 20.18157227 -1.35424805 19.10595703 C-1.78031953 15.77952613 -2.75960773 13.89103221 -4.7265625 11.19921875 C-8.56106167 9.41891556 -14.1386367 9.12352708 -17.6640625 11.51171875 Z M-21.7265625 17.19921875 C-21.7265625 24.78921875 -21.7265625 32.37921875 -21.7265625 40.19921875 C-21.3965625 40.19921875 -21.0665625 40.19921875 -20.7265625 40.19921875 C-20.7265625 32.60921875 -20.7265625 25.01921875 -20.7265625 17.19921875 C-21.0565625 17.19921875 -21.3865625 17.19921875 -21.7265625 17.19921875 Z " fill="#040404" transform="translate(902.7265625,452.80078125)"/>
<path d="M0 0 C3.71229444 2.61548017 6.68812562 4.80666577 8.75 8.9375 C10.74323486 21.36685887 6.65735421 31.84350558 -0.25 41.9375 C-0.95125 43.01 -1.6525 44.0825 -2.375 45.1875 C-6.50810289 47.70330176 -9.26722961 46.55185108 -13.8671875 45.57421875 C-24.81442057 43.51371183 -35.25964575 44.38098928 -44.70703125 50.5390625 C-46.61467107 51.94891189 -48.43349242 53.4142416 -50.25 54.9375 C-48.74489867 47.11933474 -46.24809014 39.83819123 -43.5 32.375 C-43.08234375 31.19486328 -42.6646875 30.01472656 -42.234375 28.79882812 C-38.01101612 17.29403801 -31.7106555 7.74131716 -20.80078125 1.546875 C-13.88339015 -1.53717378 -7.25602407 -2.37216171 0 0 Z M-14.25 10.9375 C-14.25 11.5975 -14.25 12.2575 -14.25 12.9375 C-15.9515625 13.3396875 -15.9515625 13.3396875 -17.6875 13.75 C-18.863125 14.141875 -20.03875 14.53375 -21.25 14.9375 C-21.58 15.9275 -21.91 16.9175 -22.25 17.9375 C-23.24 18.4325 -23.24 18.4325 -24.25 18.9375 C-27.80936006 23.49793008 -29.10128193 27.38536268 -30.25 32.9375 C-23.815 32.4425 -23.815 32.4425 -17.25 31.9375 C-16.92 32.5975 -16.59 33.2575 -16.25 33.9375 C-16.25 33.2775 -16.25 32.6175 -16.25 31.9375 C-15.693125 32.30875 -15.13625 32.68 -14.5625 33.0625 C-12.25733966 34.17651202 -12.25733966 34.17651202 -9.77734375 33.38671875 C-6.28742648 31.38554517 -5.80930481 29.37862385 -4.5 25.625 C-4.09265625 24.49449219 -3.6853125 23.36398437 -3.265625 22.19921875 C-2.40726785 19.44257176 -1.74042001 16.77873765 -1.25 13.9375 C-3.2126228 11.88954577 -4.6777307 10.98773362 -7.51953125 10.73828125 C-9.76954383 10.74891123 -12.00385562 10.80791475 -14.25 10.9375 Z M-30.25 27.9375 C-29.25 29.9375 -29.25 29.9375 -29.25 29.9375 Z " fill="#060606" transform="translate(765.25,372.0625)"/>
<path d="M0 0 C0.61522131 12.47532109 0.61522131 12.47532109 -1.4375 17.5625 C-7.57052791 23.39635581 -12.69915599 25.44778881 -21.25 25.5625 C-21.93545898 25.57716309 -22.62091797 25.59182617 -23.32714844 25.60693359 C-28.13275237 25.50960194 -30.63059446 24.38840595 -34 21 C-35.75066341 17.49867318 -35.68694688 13.81123412 -35 10 C-29.08997472 3.36923993 -20.78814299 1.01443236 -12.125 0.4375 C-10.30355469 0.31181641 -10.30355469 0.31181641 -8.4453125 0.18359375 C-5.61925847 0.03299903 -2.82860715 -0.03764306 0 0 Z " fill="#040404" transform="translate(1217,489)"/>
<path d="M0 0 C4.5210546 3.15461645 6.71902399 6.64939647 8.21875 11.8984375 C8.21875 13.8784375 8.21875 15.8584375 8.21875 17.8984375 C-5.31125 17.8984375 -18.84125 17.8984375 -32.78125 17.8984375 C-31.6504274 7.72103413 -31.6504274 7.72103413 -29.09375 5.0234375 C-28.61550781 4.48976563 -28.13726563 3.95609375 -27.64453125 3.40625 C-20.28180599 -2.55184633 -8.77935167 -3.47721513 0 0 Z " fill="#080908" transform="translate(1310.78125,451.1015625)"/>
<path d="M0 0 C16.83 0 33.66 0 51 0 C51 0.66 51 1.32 51 2 C52.32 2.33 53.64 2.66 55 3 C52.36 3.66 49.72 4.32 47 5 C47.66 4.01 48.32 3.02 49 2 C24.745 1.505 24.745 1.505 0 1 C0 0.67 0 0.34 0 0 Z " fill="#494A4A" transform="translate(1115,424)"/>
<path d="M0 0 C0.66 0.33 1.32 0.66 2 1 C-1.3 4.63 -4.6 8.26 -8 12 C-8.33 11.34 -8.66 10.68 -9 10 C-3.9977221 2.51708428 -3.9977221 2.51708428 0 0 Z " fill="#D7D6D7" transform="translate(708,334)"/>
<path d="M0 0 C0.33 0 0.66 0 1 0 C1 7.59 1 15.18 1 23 C0.67 23 0.34 23 0 23 C0 15.41 0 7.82 0 0 Z " fill="#000000" transform="translate(1090,519)"/>
<path d="M0 0 C0.33 0 0.66 0 1 0 C1 4.29 1 8.58 1 13 C0.67 13 0.34 13 0 13 C0 8.71 0 4.42 0 0 Z " fill="#000000" transform="translate(727,518)"/>
<path d="M0 0 C3.96 0 7.92 0 12 0 C12 0.33 12 0.66 12 1 C8.04 1 4.08 1 0 1 C0 0.67 0 0.34 0 0 Z " fill="#000000" transform="translate(722,475)"/>
<path d="M0 0 C0.33 0 0.66 0 1 0 C1 3.63 1 7.26 1 11 C0.67 11 0.34 11 0 11 C0 7.37 0 3.74 0 0 Z " fill="#000000" transform="translate(830,375)"/>
<path d="M0 0 C2.64 0 5.28 0 8 0 C8 0.33 8 0.66 8 1 C5.36 1 2.72 1 0 1 C0 0.67 0 0.34 0 0 Z " fill="#000000" transform="translate(1310,552)"/>
<path d="M0 0 C2.31 0 4.62 0 7 0 C7 0.33 7 0.66 7 1 C4.69 1 2.38 1 0 1 C0 0.67 0 0.34 0 0 Z " fill="#000000" transform="translate(1284,552)"/>
<path d="M0 0 C2.31 0 4.62 0 7 0 C7 0.33 7 0.66 7 1 C4.69 1 2.38 1 0 1 C0 0.67 0 0.34 0 0 Z " fill="#000000" transform="translate(877,552)"/>
<path d="M0 0 C1.98 0 3.96 0 6 0 C6 0.33 6 0.66 6 1 C4.02 1 2.04 1 0 1 C0 0.67 0 0.34 0 0 Z " fill="#000000" transform="translate(1239,552)"/>
<path d="M0 0 C1.98 0 3.96 0 6 0 C6 0.33 6 0.66 6 1 C4.02 1 2.04 1 0 1 C0 0.67 0 0.34 0 0 Z " fill="#000000" transform="translate(1165,552)"/>
<path d="M0 0 C1.98 0 3.96 0 6 0 C6 0.33 6 0.66 6 1 C4.02 1 2.04 1 0 1 C0 0.67 0 0.34 0 0 Z " fill="#000000" transform="translate(996,552)"/>
<path d="M0 0 C1.98 0 3.96 0 6 0 C6 0.33 6 0.66 6 1 C4.02 1 2.04 1 0 1 C0 0.67 0 0.34 0 0 Z " fill="#000000" transform="translate(972,552)"/>
<path d="M0 0 C1.65 0 3.3 0 5 0 C5 0.33 5 0.66 5 1 C3.35 1 1.7 1 0 1 C0 0.67 0 0.34 0 0 Z " fill="#000000" transform="translate(1261,552)"/>
<path d="M0 0 C1.65 0 3.3 0 5 0 C5 0.33 5 0.66 5 1 C3.35 1 1.7 1 0 1 C0 0.67 0 0.34 0 0 Z " fill="#000000" transform="translate(901,552)"/>
<path d="M0 0 C1.65 0 3.3 0 5 0 C5 0.33 5 0.66 5 1 C3.35 1 1.7 1 0 1 C0 0.67 0 0.34 0 0 Z " fill="#000000" transform="translate(1312,411)"/>
<path d="M0 0 C1.65 0 3.3 0 5 0 C5 0.33 5 0.66 5 1 C3.35 1 1.7 1 0 1 C0 0.67 0 0.34 0 0 Z " fill="#000000" transform="translate(1181,411)"/>
<path d="M0 0 C1.65 0 3.3 0 5 0 C5 0.33 5 0.66 5 1 C3.35 1 1.7 1 0 1 C0 0.67 0 0.34 0 0 Z " fill="#000000" transform="translate(969,411)"/>
<path d="M0 0 C1.65 0 3.3 0 5 0 C5 0.33 5 0.66 5 1 C3.35 1 1.7 1 0 1 C0 0.67 0 0.34 0 0 Z " fill="#000000" transform="translate(874,411)"/>
<path d="M0 0 C4 1 4 1 4 1 Z " fill="#000000" transform="translate(1187,552)"/>
<path d="M0 0 C1 4 1 4 1 4 Z " fill="#000000" transform="translate(1373,465)"/>
<path d="M0 0 C4 1 4 1 4 1 Z " fill="#000000" transform="translate(1281,411)"/>
<path d="M0 0 C4 1 4 1 4 1 Z " fill="#000000" transform="translate(1217,411)"/>
<path d="M0 0 C4 1 4 1 4 1 Z " fill="#000000" transform="translate(1001,411)"/>
<path d="M0 0 C4 1 4 1 4 1 Z " fill="#000000" transform="translate(905,411)"/>
<path d="" fill="#000000" transform="translate(0,0)"/>
<path d="M0 0 C2 1 2 1 2 1 Z " fill="#000000" transform="translate(1331,549)"/>
<path d="M0 0 C2 1 2 1 2 1 Z " fill="#000000" transform="translate(1015,549)"/>
<path d="M0 0 C2 1 2 1 2 1 Z " fill="#000000" transform="translate(957,549)"/>
<path d="M0 0 C2 1 2 1 2 1 Z " fill="#000000" transform="translate(919,549)"/>
<path d="M0 0 C2 1 2 1 2 1 Z " fill="#000000" transform="translate(862,549)"/>
<path d="" fill="#000000" transform="translate(0,0)"/>
<path d="" fill="#000000" transform="translate(0,0)"/>
<path d="" fill="#000000" transform="translate(0,0)"/>
<path d="" fill="#000000" transform="translate(0,0)"/>
<path d="" fill="#000000" transform="translate(0,0)"/>
<path d="" fill="#000000" transform="translate(0,0)"/>
<path d="" fill="#000000" transform="translate(0,0)"/>
<path d="" fill="#000000" transform="translate(0,0)"/>
<path d="" fill="#000000" transform="translate(0,0)"/>
<path d="" fill="#000000" transform="translate(0,0)"/>
<path d="M0 0 C2 1 2 1 2 1 Z " fill="#000000" transform="translate(1328,414)"/>
<path d="M0 0 C2 1 2 1 2 1 Z " fill="#000000" transform="translate(1233,414)"/>
<path d="M0 0 C2 1 2 1 2 1 Z " fill="#000000" transform="translate(956,414)"/>
<path d="M0 0 C2 1 2 1 2 1 Z " fill="#000000" transform="translate(920,414)"/>
<path d="" fill="#000000" transform="translate(0,0)"/>
<path d="" fill="#000000" transform="translate(0,0)"/>
<path d="" fill="#000000" transform="translate(0,0)"/>
<path d="M0 0 C2 1 2 1 2 1 Z " fill="#000000" transform="translate(790,327)"/>
<path d="M0 0 C2 1 2 1 2 1 Z " fill="#000000" transform="translate(779,324)"/>
<path d="M0 0 C2 1 2 1 2 1 Z " fill="#000000" transform="translate(749,324)"/>
<path d="M0 0 C2 1 2 1 2 1 Z " fill="#000000" transform="translate(730,321)"/>
<path d="" fill="#000000" transform="translate(0,0)"/>
<path d="" fill="#000000" transform="translate(0,0)"/>
<path d="" fill="#000000" transform="translate(0,0)"/>
<path d="" fill="#000000" transform="translate(0,0)"/>
<path d="" fill="#000000" transform="translate(0,0)"/>
<path d="" fill="#000000" transform="translate(0,0)"/>
<path d="" fill="#000000" transform="translate(0,0)"/>
<path d="" fill="#000000" transform="translate(0,0)"/>
<path d="" fill="#000000" transform="translate(0,0)"/>
<path d="" fill="#000000" transform="translate(0,0)"/>
<path d="" fill="#000000" transform="translate(0,0)"/>
<path d="" fill="#000000" transform="translate(0,0)"/>
<path d="" fill="#000000" transform="translate(0,0)"/>
<path d="" fill="#000000" transform="translate(0,0)"/>
<path d="" fill="#000000" transform="translate(0,0)"/>
<path d="" fill="#000000" transform="translate(0,0)"/>
<path d="" fill="#000000" transform="translate(0,0)"/>
<path d="" fill="#000000" transform="translate(0,0)"/>
<path d="" fill="#000000" transform="translate(0,0)"/>
<path d="" fill="#000000" transform="translate(0,0)"/>
<path d="" fill="#000000" transform="translate(0,0)"/>
<path d="" fill="#000000" transform="translate(0,0)"/>
<path d="" fill="#000000" transform="translate(0,0)"/>
<path d="" fill="#000000" transform="translate(0,0)"/>
<path d="" fill="#000000" transform="translate(0,0)"/>
<path d="" fill="#000000" transform="translate(0,0)"/>
<path d="" fill="#000000" transform="translate(0,0)"/>
<path d="" fill="#000000" transform="translate(0,0)"/>
<path d="" fill="#000000" transform="translate(0,0)"/>
<path d="" fill="#000000" transform="translate(0,0)"/>
<path d="" fill="#000000" transform="translate(0,0)"/>
</svg>
